<svg width="100%" height="100%" viewBox="0 0 24 24" fill="none" xmlns="http://www.w3.org/2000/svg">
<rect width="24" height="24" rx="4" fill="#074668"></rect>
<mask id="path-2-inside-1_160_265" fill="white">
<path d="M19 19H5V5"></path>
</mask>
<path d="M19 20C19.5523 20 20 19.5523 20 19C20 18.4477 19.5523 18 19 18V20ZM5 19H4C4 19.5523 4.44772 20 5 20V19ZM6 5C6 4.44772 5.55228 4 5 4C4.44772 4 4 4.44772 4 5H6ZM19 18H5V20H19V18ZM6 19V5H4V19H6Z" fill="#FFFCF8" mask="url(#path-2-inside-1_160_265)"></path>
<path d="M6 16L12.1935 9.33333L14.5161 12L18 8" stroke="#FFFCF8" stroke-linecap="round" stroke-linejoin="round"></path>
</svg>